<?xml version="1.0"?>
<svg width="640" height="480" xmlns="http://www.w3.org/2000/svg" xmlns:svg="http://www.w3.org/2000/svg">
 <!-- Created with SVG-edit - https://github.com/SVG-Edit/svgedit-->
 <g class="layer">
  <title>Layer 1</title>
  <line fill="none" id="svg_1" stroke="#000000" stroke-width="5" x1="223.500005" x2="163.500003" y1="175.5" y2="242.499999"/>
  <line fill="none" id="svg_2" stroke="#000000" stroke-width="5" x1="274.5" x2="220.5" y1="238.5" y2="175.499999"/>
  <line fill="none" id="svg_3" stroke="#000000" stroke-width="5" x1="163.500001" x2="219.500003" y1="240.500002" y2="265.500001"/>
  <line fill="none" id="svg_4" stroke="#000000" stroke-width="5" x1="274.499996" x2="235.499997" y1="240.499997" y2="262.499997"/>
  <line fill="none" id="svg_5" stroke="#000000" stroke-width="5" x1="265.500005" x2="238.500003" y1="306.5" y2="265.499999"/>
  <line fill="none" id="svg_6" stroke="#000000" stroke-width="5" x1="180.5" x2="219.5" y1="315.5" y2="262.5"/>
  <line fill="none" id="svg_12" stroke="#000000" stroke-width="5" x1="199.500005" x2="139.500003" y1="167.5" y2="234.499999"/>
  <line fill="none" id="svg_11" stroke="#000000" stroke-width="5" x1="250.5" x2="196.5" y1="230.5" y2="167.499999"/>
  <line fill="none" id="svg_10" stroke="#000000" stroke-width="5" x1="139.500001" x2="195.500003" y1="232.500002" y2="257.500001"/>
  <line fill="none" id="svg_9" stroke="#000000" stroke-width="5" x1="250.499996" x2="211.499997" y1="232.499997" y2="254.499997"/>
  <line fill="none" id="svg_8" stroke="#000000" stroke-width="5" x1="241.500005" x2="214.500003" y1="298.5" y2="257.499999"/>
  <line fill="none" id="svg_7" stroke="#000000" stroke-width="5" x1="156.5" x2="195.5" y1="307.5" y2="254.5"/>
  <line fill="none" id="svg_13" stroke="#000000" stroke-width="5" x1="180.5" x2="156.5" y1="312.5" y2="304.5"/>
  <line fill="none" id="svg_14" stroke="#000000" stroke-width="5" x1="220.5" x2="199.5" y1="177.5" y2="167.5"/>
  <line fill="none" id="svg_15" stroke="#000000" stroke-width="5" x1="262.5" x2="237.5" y1="301.5" y2="295.5"/>
  <line fill="none" id="svg_16" stroke="#000000" stroke-width="5" x1="268.5" x2="245.5" y1="237.5" y2="229.5"/>
  <line fill="none" id="svg_17" stroke="#000000" stroke-width="5" x1="234.5" x2="209.5" y1="263.5" y2="253.5"/>
 </g>
</svg>